<svg xmlns="http://www.w3.org/2000/svg" viewBox="0 0 400 400" width="400" height="400" role="img">
<defs><linearGradient id="g1" x1="0.883022221559489" y1="0.17860619515673026" x2="0.11697777844051105" y2="0.8213938048432697">
<stop offset="0" stop-color="#E8E6E1"/><stop offset="1" stop-color="#CFCBC2"/>
</linearGradient></defs>
<rect width="400" height="400" fill="url(#g1)"/>
<circle cx="330" cy="72" r="120" fill="#16130F" opacity="0.06"/>
<g transform="translate(24.57627118644067 -73.66101694915255) scale(1.1694915254237288)"><path d="M104 116 C118 140 182 140 196 116 L238 134 L262 258 L238 266 L222 178 L236 352 L64 352 L78 178 L62 266 L38 258 L62 134 Z" fill="#16130F"/><path d="M104 116 C118 140 182 140 196 116" fill="none" stroke="#E8E6E1" stroke-width="7" stroke-linecap="round" opacity="1"/><path d="M150 156 L150 352" fill="none" stroke="#E8E6E1" stroke-width="6" stroke-linecap="round" opacity="1"/><path d="M104 120 L150 172 L196 120" fill="none" stroke="#E8E6E1" stroke-width="7" stroke-linecap="round" opacity="1"/><path d="M214 240 L186 240" fill="none" stroke="#E8E6E1" stroke-width="5" stroke-linecap="round" opacity="0.55"/><path d="M86 240 L114 240" fill="none" stroke="#E8E6E1" stroke-width="5" stroke-linecap="round" opacity="0.55"/></g>
</svg>